<?xml version="1.0"?>
<!-- Generated by SVGo and Plotinum VG -->
<svg width="12in" height="4in"
	xmlns="http://www.w3.org/2000/svg"
	xmlns:xlink="http://www.w3.org/1999/xlink">
<g transform="scale(1, -1) translate(0, -360)">
<path d="M0,0L1080,0L1080,360L0,360Z" style="fill:#FFFFFF" />
<text x="495.2" y="-342" transform="scale(1, -1)"
	style="font-family:Helvetica;font-weight:normal;font-style:normal;font-size:15pt">Mass error</text>
<text x="555.83" y="-4.8486" transform="scale(1, -1)"
	style="font-family:Helvetica;font-weight:normal;font-style:normal;font-size:12pt">ppm</text>
<text x="156.82" y="-19.498" transform="scale(1, -1)"
	style="font-family:Helvetica;font-weight:normal;font-style:normal;font-size:10pt">-8</text>
<text x="566.61" y="-19.498" transform="scale(1, -1)"
	style="font-family:Helvetica;font-weight:normal;font-style:normal;font-size:10pt">0</text>
<text x="974.33" y="-19.498" transform="scale(1, -1)"
	style="font-family:Helvetica;font-weight:normal;font-style:normal;font-size:10pt">8</text>
<path d="M162.37,31.498L162.37,41.498" style="fill:none;stroke:#000000;stroke-width:0.625" />
<path d="M570.09,31.498L570.09,41.498" style="fill:none;stroke:#000000;stroke-width:0.625" />
<path d="M977.8,31.498L977.8,41.498" style="fill:none;stroke:#000000;stroke-width:0.625" />
<path d="M366.23,36.498L366.23,41.498" style="fill:none;stroke:#000000;stroke-width:0.625" />
<path d="M773.94,36.498L773.94,41.498" style="fill:none;stroke:#000000;stroke-width:0.625" />
<path d="M60.834,41.498L1080,41.498" style="fill:none;stroke:#000000;stroke-width:0.625" />
<g transform="rotate(90)">
<text x="157.39" y="14.399" transform="scale(1, -1)"
	style="font-family:Helvetica;font-weight:normal;font-style:normal;font-size:12pt"># peptides</text>
</g>
<text x="33.152" y="-42.186" transform="scale(1, -1)"
	style="font-family:Helvetica;font-weight:normal;font-style:normal;font-size:10pt">0</text>
<text x="19.248" y="-133" transform="scale(1, -1)"
	style="font-family:Helvetica;font-weight:normal;font-style:normal;font-size:10pt">100</text>
<text x="19.248" y="-223.81" transform="scale(1, -1)"
	style="font-family:Helvetica;font-weight:normal;font-style:normal;font-size:10pt">200</text>
<text x="19.248" y="-314.63" transform="scale(1, -1)"
	style="font-family:Helvetica;font-weight:normal;font-style:normal;font-size:10pt">300</text>
<path d="M43.577,48.06L53.577,48.06" style="fill:none;stroke:#000000;stroke-width:0.625" />
<path d="M43.577,138.87L53.577,138.87" style="fill:none;stroke:#000000;stroke-width:0.625" />
<path d="M43.577,229.69L53.577,229.69" style="fill:none;stroke:#000000;stroke-width:0.625" />
<path d="M43.577,320.5L53.577,320.5" style="fill:none;stroke:#000000;stroke-width:0.625" />
<path d="M48.577,66.223L53.577,66.223" style="fill:none;stroke:#000000;stroke-width:0.625" />
<path d="M48.577,84.386L53.577,84.386" style="fill:none;stroke:#000000;stroke-width:0.625" />
<path d="M48.577,102.55L53.577,102.55" style="fill:none;stroke:#000000;stroke-width:0.625" />
<path d="M48.577,120.71L53.577,120.71" style="fill:none;stroke:#000000;stroke-width:0.625" />
<path d="M48.577,157.04L53.577,157.04" style="fill:none;stroke:#000000;stroke-width:0.625" />
<path d="M48.577,175.2L53.577,175.2" style="fill:none;stroke:#000000;stroke-width:0.625" />
<path d="M48.577,193.36L53.577,193.36" style="fill:none;stroke:#000000;stroke-width:0.625" />
<path d="M48.577,211.53L53.577,211.53" style="fill:none;stroke:#000000;stroke-width:0.625" />
<path d="M48.577,247.85L53.577,247.85" style="fill:none;stroke:#000000;stroke-width:0.625" />
<path d="M48.577,266.01L53.577,266.01" style="fill:none;stroke:#000000;stroke-width:0.625" />
<path d="M48.577,284.18L53.577,284.18" style="fill:none;stroke:#000000;stroke-width:0.625" />
<path d="M48.577,302.34L53.577,302.34" style="fill:none;stroke:#000000;stroke-width:0.625" />
<path d="M53.577,48.06L53.577,335.94" style="fill:none;stroke:#000000;stroke-width:0.625" />
<path d="M60.834,48.06L76.739,48.06L76.739,63.499L60.834,63.499Z" style="fill:#FF7F7F;fill-opacity:0.50196" />
<path d="M60.834,48.06L76.739,48.06L76.739,63.499L60.834,63.499L60.834,48.06" style="fill:none;stroke:#FF0000;stroke-opacity:0.50196;stroke-width:1.25" />
<path d="M76.739,48.06L92.645,48.06L92.645,63.499L76.739,63.499Z" style="fill:#FF7F7F;fill-opacity:0.50196" />
<path d="M76.739,48.06L92.645,48.06L92.645,63.499L76.739,63.499L76.739,48.06" style="fill:none;stroke:#FF0000;stroke-opacity:0.50196;stroke-width:1.25" />
<path d="M92.645,48.06L108.55,48.06L108.55,69.856L92.645,69.856Z" style="fill:#FF7F7F;fill-opacity:0.50196" />
<path d="M92.645,48.06L108.55,48.06L108.55,69.856L92.645,69.856L92.645,48.06" style="fill:none;stroke:#FF0000;stroke-opacity:0.50196;stroke-width:1.25" />
<path d="M108.55,48.06L124.46,48.06L124.46,63.499L108.55,63.499Z" style="fill:#FF7F7F;fill-opacity:0.50196" />
<path d="M108.55,48.06L124.46,48.06L124.46,63.499L108.55,63.499L108.55,48.06" style="fill:none;stroke:#FF0000;stroke-opacity:0.50196;stroke-width:1.25" />
<path d="M124.46,48.06L140.36,48.06L140.36,61.682L124.46,61.682Z" style="fill:#FF7F7F;fill-opacity:0.50196" />
<path d="M124.46,48.06L140.36,48.06L140.36,61.682L124.46,61.682L124.46,48.06" style="fill:none;stroke:#FF0000;stroke-opacity:0.50196;stroke-width:1.25" />
<path d="M140.36,48.06L156.27,48.06L156.27,58.958L140.36,58.958Z" style="fill:#FF7F7F;fill-opacity:0.50196" />
<path d="M140.36,48.06L156.27,48.06L156.27,58.958L140.36,58.958L140.36,48.06" style="fill:none;stroke:#FF0000;stroke-opacity:0.50196;stroke-width:1.25" />
<path d="M156.27,48.06L172.17,48.06L172.17,67.131L156.27,67.131Z" style="fill:#FF7F7F;fill-opacity:0.50196" />
<path d="M156.27,48.06L172.17,48.06L172.17,67.131L156.27,67.131L156.27,48.06" style="fill:none;stroke:#FF0000;stroke-opacity:0.50196;stroke-width:1.25" />
<path d="M172.17,48.06L188.08,48.06L188.08,70.764L172.17,70.764Z" style="fill:#FF7F7F;fill-opacity:0.50196" />
<path d="M172.17,48.06L188.08,48.06L188.08,70.764L172.17,70.764L172.17,48.06" style="fill:none;stroke:#FF0000;stroke-opacity:0.50196;stroke-width:1.25" />
<path d="M188.08,48.06L203.99,48.06L203.99,75.304L188.08,75.304Z" style="fill:#FF7F7F;fill-opacity:0.50196" />
<path d="M188.08,48.06L203.99,48.06L203.99,75.304L188.08,75.304L188.08,48.06" style="fill:none;stroke:#FF0000;stroke-opacity:0.50196;stroke-width:1.25" />
<path d="M203.99,48.06L219.89,48.06L219.89,73.488L203.99,73.488Z" style="fill:#FF7F7F;fill-opacity:0.50196" />
<path d="M203.99,48.06L219.89,48.06L219.89,73.488L203.99,73.488L203.99,48.06" style="fill:none;stroke:#FF0000;stroke-opacity:0.50196;stroke-width:1.25" />
<path d="M219.89,48.06L235.8,48.06L235.8,66.223L219.89,66.223Z" style="fill:#FF7F7F;fill-opacity:0.50196" />
<path d="M219.89,48.06L235.8,48.06L235.8,66.223L219.89,66.223L219.89,48.06" style="fill:none;stroke:#FF0000;stroke-opacity:0.50196;stroke-width:1.25" />
<path d="M235.8,48.06L251.7,48.06L251.7,78.029L235.8,78.029Z" style="fill:#FF7F7F;fill-opacity:0.50196" />
<path d="M235.8,48.06L251.7,48.06L251.7,78.029L235.8,78.029L235.8,48.06" style="fill:none;stroke:#FF0000;stroke-opacity:0.50196;stroke-width:1.25" />
<path d="M251.7,48.06L267.61,48.06L267.61,75.304L251.7,75.304Z" style="fill:#FF7F7F;fill-opacity:0.50196" />
<path d="M251.7,48.06L267.61,48.06L267.61,75.304L251.7,75.304L251.7,48.06" style="fill:none;stroke:#FF0000;stroke-opacity:0.50196;stroke-width:1.25" />
<path d="M267.61,48.06L283.51,48.06L283.51,86.202L267.61,86.202Z" style="fill:#FF7F7F;fill-opacity:0.50196" />
<path d="M267.61,48.06L283.51,48.06L283.51,86.202L267.61,86.202L267.61,48.06" style="fill:none;stroke:#FF0000;stroke-opacity:0.50196;stroke-width:1.25" />
<path d="M283.51,48.06L299.42,48.06L299.42,82.57L283.51,82.57Z" style="fill:#FF7F7F;fill-opacity:0.50196" />
<path d="M283.51,48.06L299.42,48.06L299.42,82.57L283.51,82.57L283.51,48.06" style="fill:none;stroke:#FF0000;stroke-opacity:0.50196;stroke-width:1.25" />
<path d="M299.42,48.06L315.33,48.06L315.33,88.926L299.42,88.926Z" style="fill:#FF7F7F;fill-opacity:0.50196" />
<path d="M299.42,48.06L315.33,48.06L315.33,88.926L299.42,88.926L299.42,48.06" style="fill:none;stroke:#FF0000;stroke-opacity:0.50196;stroke-width:1.25" />
<path d="M315.33,48.06L331.23,48.06L331.23,104.36L315.33,104.36Z" style="fill:#FF7F7F;fill-opacity:0.50196" />
<path d="M315.33,48.06L331.23,48.06L331.23,104.36L315.33,104.36L315.33,48.06" style="fill:none;stroke:#FF0000;stroke-opacity:0.50196;stroke-width:1.25" />
<path d="M331.23,48.06L347.14,48.06L347.14,112.54L331.23,112.54Z" style="fill:#FF7F7F;fill-opacity:0.50196" />
<path d="M331.23,48.06L347.14,48.06L347.14,112.54L331.23,112.54L331.23,48.06" style="fill:none;stroke:#FF0000;stroke-opacity:0.50196;stroke-width:1.25" />
<path d="M347.14,48.06L363.04,48.06L363.04,106.18L347.14,106.18Z" style="fill:#FF7F7F;fill-opacity:0.50196" />
<path d="M347.14,48.06L363.04,48.06L363.04,106.18L347.14,106.18L347.14,48.06" style="fill:none;stroke:#FF0000;stroke-opacity:0.50196;stroke-width:1.25" />
<path d="M363.04,48.06L378.95,48.06L378.95,127.07L363.04,127.07Z" style="fill:#FF7F7F;fill-opacity:0.50196" />
<path d="M363.04,48.06L378.95,48.06L378.95,127.07L363.04,127.07L363.04,48.06" style="fill:none;stroke:#FF0000;stroke-opacity:0.50196;stroke-width:1.25" />
<path d="M378.95,48.06L394.85,48.06L394.85,126.16L378.95,126.16Z" style="fill:#FF7F7F;fill-opacity:0.50196" />
<path d="M378.95,48.06L394.85,48.06L394.85,126.16L378.95,126.16L378.95,48.06" style="fill:none;stroke:#FF0000;stroke-opacity:0.50196;stroke-width:1.25" />
<path d="M394.85,48.06L410.76,48.06L410.76,130.7L394.85,130.7Z" style="fill:#FF7F7F;fill-opacity:0.50196" />
<path d="M394.85,48.06L410.76,48.06L410.76,130.7L394.85,130.7L394.85,48.06" style="fill:none;stroke:#FF0000;stroke-opacity:0.50196;stroke-width:1.25" />
<path d="M410.76,48.06L426.67,48.06L426.67,146.14L410.76,146.14Z" style="fill:#FF7F7F;fill-opacity:0.50196" />
<path d="M410.76,48.06L426.67,48.06L426.67,146.14L410.76,146.14L410.76,48.06" style="fill:none;stroke:#FF0000;stroke-opacity:0.50196;stroke-width:1.25" />
<path d="M426.67,48.06L442.57,48.06L442.57,161.58L426.67,161.58Z" style="fill:#FF7F7F;fill-opacity:0.50196" />
<path d="M426.67,48.06L442.57,48.06L442.57,161.58L426.67,161.58L426.67,48.06" style="fill:none;stroke:#FF0000;stroke-opacity:0.50196;stroke-width:1.25" />
<path d="M442.57,48.06L458.48,48.06L458.48,167.03L442.57,167.03Z" style="fill:#FF7F7F;fill-opacity:0.50196" />
<path d="M442.57,48.06L458.48,48.06L458.48,167.03L442.57,167.03L442.57,48.06" style="fill:none;stroke:#FF0000;stroke-opacity:0.50196;stroke-width:1.25" />
<path d="M458.48,48.06L474.38,48.06L474.38,133.43L458.48,133.43Z" style="fill:#FF7F7F;fill-opacity:0.50196" />
<path d="M458.48,48.06L474.38,48.06L474.38,133.43L458.48,133.43L458.48,48.06" style="fill:none;stroke:#FF0000;stroke-opacity:0.50196;stroke-width:1.25" />
<path d="M474.38,48.06L490.29,48.06L490.29,158.85L474.38,158.85Z" style="fill:#FF7F7F;fill-opacity:0.50196" />
<path d="M474.38,48.06L490.29,48.06L490.29,158.85L474.38,158.85L474.38,48.06" style="fill:none;stroke:#FF0000;stroke-opacity:0.50196;stroke-width:1.25" />
<path d="M490.29,48.06L506.19,48.06L506.19,183.37L490.29,183.37Z" style="fill:#FF7F7F;fill-opacity:0.50196" />
<path d="M490.29,48.06L506.19,48.06L506.19,183.37L490.29,183.37L490.29,48.06" style="fill:none;stroke:#FF0000;stroke-opacity:0.50196;stroke-width:1.25" />
<path d="M506.19,48.06L522.1,48.06L522.1,187.01L506.19,187.01Z" style="fill:#FF7F7F;fill-opacity:0.50196" />
<path d="M506.19,48.06L522.1,48.06L522.1,187.01L506.19,187.01L506.19,48.06" style="fill:none;stroke:#FF0000;stroke-opacity:0.50196;stroke-width:1.25" />
<path d="M522.1,48.06L538.01,48.06L538.01,163.39L522.1,163.39Z" style="fill:#FF7F7F;fill-opacity:0.50196" />
<path d="M522.1,48.06L538.01,48.06L538.01,163.39L522.1,163.39L522.1,48.06" style="fill:none;stroke:#FF0000;stroke-opacity:0.50196;stroke-width:1.25" />
<path d="M538.01,48.06L553.91,48.06L553.91,179.74L538.01,179.74Z" style="fill:#FF7F7F;fill-opacity:0.50196" />
<path d="M538.01,48.06L553.91,48.06L553.91,179.74L538.01,179.74L538.01,48.06" style="fill:none;stroke:#FF0000;stroke-opacity:0.50196;stroke-width:1.25" />
<path d="M553.91,48.06L569.82,48.06L569.82,180.65L553.91,180.65Z" style="fill:#FF7F7F;fill-opacity:0.50196" />
<path d="M553.91,48.06L569.82,48.06L569.82,180.65L553.91,180.65L553.91,48.06" style="fill:none;stroke:#FF0000;stroke-opacity:0.50196;stroke-width:1.25" />
<path d="M569.82,48.06L585.72,48.06L585.72,154.31L569.82,154.31Z" style="fill:#FF7F7F;fill-opacity:0.50196" />
<path d="M569.82,48.06L585.72,48.06L585.72,154.31L569.82,154.31L569.82,48.06" style="fill:none;stroke:#FF0000;stroke-opacity:0.50196;stroke-width:1.25" />
<path d="M585.72,48.06L601.63,48.06L601.63,164.3L585.72,164.3Z" style="fill:#FF7F7F;fill-opacity:0.50196" />
<path d="M585.72,48.06L601.63,48.06L601.63,164.3L585.72,164.3L585.72,48.06" style="fill:none;stroke:#FF0000;stroke-opacity:0.50196;stroke-width:1.25" />
<path d="M601.63,48.06L617.53,48.06L617.53,129.79L601.63,129.79Z" style="fill:#FF7F7F;fill-opacity:0.50196" />
<path d="M601.63,48.06L617.53,48.06L617.53,129.79L601.63,129.79L601.63,48.06" style="fill:none;stroke:#FF0000;stroke-opacity:0.50196;stroke-width:1.25" />
<path d="M617.53,48.06L633.44,48.06L633.44,139.78L617.53,139.78Z" style="fill:#FF7F7F;fill-opacity:0.50196" />
<path d="M617.53,48.06L633.44,48.06L633.44,139.78L617.53,139.78L617.53,48.06" style="fill:none;stroke:#FF0000;stroke-opacity:0.50196;stroke-width:1.25" />
<path d="M633.44,48.06L649.35,48.06L649.35,137.06L633.44,137.06Z" style="fill:#FF7F7F;fill-opacity:0.50196" />
<path d="M633.44,48.06L649.35,48.06L649.35,137.06L633.44,137.06L633.44,48.06" style="fill:none;stroke:#FF0000;stroke-opacity:0.50196;stroke-width:1.25" />
<path d="M649.35,48.06L665.25,48.06L665.25,113.45L649.35,113.45Z" style="fill:#FF7F7F;fill-opacity:0.50196" />
<path d="M649.35,48.06L665.25,48.06L665.25,113.45L649.35,113.45L649.35,48.06" style="fill:none;stroke:#FF0000;stroke-opacity:0.50196;stroke-width:1.25" />
<path d="M665.25,48.06L681.16,48.06L681.16,125.25L665.25,125.25Z" style="fill:#FF7F7F;fill-opacity:0.50196" />
<path d="M665.25,48.06L681.16,48.06L681.16,125.25L665.25,125.25L665.25,48.06" style="fill:none;stroke:#FF0000;stroke-opacity:0.50196;stroke-width:1.25" />
<path d="M681.16,48.06L697.06,48.06L697.06,106.18L681.16,106.18Z" style="fill:#FF7F7F;fill-opacity:0.50196" />
<path d="M681.16,48.06L697.06,48.06L697.06,106.18L681.16,106.18L681.16,48.06" style="fill:none;stroke:#FF0000;stroke-opacity:0.50196;stroke-width:1.25" />
<path d="M697.06,48.06L712.97,48.06L712.97,100.73L697.06,100.73Z" style="fill:#FF7F7F;fill-opacity:0.50196" />
<path d="M697.06,48.06L712.97,48.06L712.97,100.73L697.06,100.73L697.06,48.06" style="fill:none;stroke:#FF0000;stroke-opacity:0.50196;stroke-width:1.25" />
<path d="M712.97,48.06L728.87,48.06L728.87,108.91L712.97,108.91Z" style="fill:#FF7F7F;fill-opacity:0.50196" />
<path d="M712.97,48.06L728.87,48.06L728.87,108.91L712.97,108.91L712.97,48.06" style="fill:none;stroke:#FF0000;stroke-opacity:0.50196;stroke-width:1.25" />
<path d="M728.87,48.06L744.78,48.06L744.78,92.559L728.87,92.559Z" style="fill:#FF7F7F;fill-opacity:0.50196" />
<path d="M728.87,48.06L744.78,48.06L744.78,92.559L728.87,92.559L728.87,48.06" style="fill:none;stroke:#FF0000;stroke-opacity:0.50196;stroke-width:1.25" />
<path d="M744.78,48.06L760.69,48.06L760.69,88.926L744.78,88.926Z" style="fill:#FF7F7F;fill-opacity:0.50196" />
<path d="M744.78,48.06L760.69,48.06L760.69,88.926L744.78,88.926L744.78,48.06" style="fill:none;stroke:#FF0000;stroke-opacity:0.50196;stroke-width:1.25" />
<path d="M760.69,48.06L776.59,48.06L776.59,75.304L760.69,75.304Z" style="fill:#FF7F7F;fill-opacity:0.50196" />
<path d="M760.69,48.06L776.59,48.06L776.59,75.304L760.69,75.304L760.69,48.06" style="fill:none;stroke:#FF0000;stroke-opacity:0.50196;stroke-width:1.25" />
<path d="M776.59,48.06L792.5,48.06L792.5,68.039L776.59,68.039Z" style="fill:#FF7F7F;fill-opacity:0.50196" />
<path d="M776.59,48.06L792.5,48.06L792.5,68.039L776.59,68.039L776.59,48.06" style="fill:none;stroke:#FF0000;stroke-opacity:0.50196;stroke-width:1.25" />
<path d="M792.5,48.06L808.4,48.06L808.4,78.937L792.5,78.937Z" style="fill:#FF7F7F;fill-opacity:0.50196" />
<path d="M792.5,48.06L808.4,48.06L808.4,78.937L792.5,78.937L792.5,48.06" style="fill:none;stroke:#FF0000;stroke-opacity:0.50196;stroke-width:1.25" />
<path d="M808.4,48.06L824.31,48.06L824.31,75.304L808.4,75.304Z" style="fill:#FF7F7F;fill-opacity:0.50196" />
<path d="M808.4,48.06L824.31,48.06L824.31,75.304L808.4,75.304L808.4,48.06" style="fill:none;stroke:#FF0000;stroke-opacity:0.50196;stroke-width:1.25" />
<path d="M824.31,48.06L840.21,48.06L840.21,61.682L824.31,61.682Z" style="fill:#FF7F7F;fill-opacity:0.50196" />
<path d="M824.31,48.06L840.21,48.06L840.21,61.682L824.31,61.682L824.31,48.06" style="fill:none;stroke:#FF0000;stroke-opacity:0.50196;stroke-width:1.25" />
<path d="M840.21,48.06L856.12,48.06L856.12,66.223L840.21,66.223Z" style="fill:#FF7F7F;fill-opacity:0.50196" />
<path d="M840.21,48.06L856.12,48.06L856.12,66.223L840.21,66.223L840.21,48.06" style="fill:none;stroke:#FF0000;stroke-opacity:0.50196;stroke-width:1.25" />
<path d="M856.12,48.06L872.03,48.06L872.03,59.866L856.12,59.866Z" style="fill:#FF7F7F;fill-opacity:0.50196" />
<path d="M856.12,48.06L872.03,48.06L872.03,59.866L856.12,59.866L856.12,48.06" style="fill:none;stroke:#FF0000;stroke-opacity:0.50196;stroke-width:1.25" />
<path d="M872.03,48.06L887.93,48.06L887.93,60.774L872.03,60.774Z" style="fill:#FF7F7F;fill-opacity:0.50196" />
<path d="M872.03,48.06L887.93,48.06L887.93,60.774L872.03,60.774L872.03,48.06" style="fill:none;stroke:#FF0000;stroke-opacity:0.50196;stroke-width:1.25" />
<path d="M887.93,48.06L903.84,48.06L903.84,59.866L887.93,59.866Z" style="fill:#FF7F7F;fill-opacity:0.50196" />
<path d="M887.93,48.06L903.84,48.06L903.84,59.866L887.93,59.866L887.93,48.06" style="fill:none;stroke:#FF0000;stroke-opacity:0.50196;stroke-width:1.25" />
<path d="M903.84,48.06L919.74,48.06L919.74,55.325L903.84,55.325Z" style="fill:#FF7F7F;fill-opacity:0.50196" />
<path d="M903.84,48.06L919.74,48.06L919.74,55.325L903.84,55.325L903.84,48.06" style="fill:none;stroke:#FF0000;stroke-opacity:0.50196;stroke-width:1.25" />
<path d="M919.74,48.06L935.65,48.06L935.65,51.693L919.74,51.693Z" style="fill:#FF7F7F;fill-opacity:0.50196" />
<path d="M919.74,48.06L935.65,48.06L935.65,51.693L919.74,51.693L919.74,48.06" style="fill:none;stroke:#FF0000;stroke-opacity:0.50196;stroke-width:1.25" />
<path d="M935.65,48.06L951.55,48.06L951.55,53.509L935.65,53.509Z" style="fill:#FF7F7F;fill-opacity:0.50196" />
<path d="M935.65,48.06L951.55,48.06L951.55,53.509L935.65,53.509L935.65,48.06" style="fill:none;stroke:#FF0000;stroke-opacity:0.50196;stroke-width:1.25" />
<path d="M951.55,48.06L967.46,48.06L967.46,54.417L951.55,54.417Z" style="fill:#FF7F7F;fill-opacity:0.50196" />
<path d="M951.55,48.06L967.46,48.06L967.46,54.417L951.55,54.417L951.55,48.06" style="fill:none;stroke:#FF0000;stroke-opacity:0.50196;stroke-width:1.25" />
<path d="M967.46,48.06L983.37,48.06L983.37,53.509L967.46,53.509Z" style="fill:#FF7F7F;fill-opacity:0.50196" />
<path d="M967.46,48.06L983.37,48.06L983.37,53.509L967.46,53.509L967.46,48.06" style="fill:none;stroke:#FF0000;stroke-opacity:0.50196;stroke-width:1.25" />
<path d="M983.37,48.06L999.27,48.06L999.27,56.234L983.37,56.234Z" style="fill:#FF7F7F;fill-opacity:0.50196" />
<path d="M983.37,48.06L999.27,48.06L999.27,56.234L983.37,56.234L983.37,48.06" style="fill:none;stroke:#FF0000;stroke-opacity:0.50196;stroke-width:1.25" />
<path d="M999.27,48.06L1015.2,48.06L1015.2,57.142L999.27,57.142Z" style="fill:#FF7F7F;fill-opacity:0.50196" />
<path d="M999.27,48.06L1015.2,48.06L1015.2,57.142L999.27,57.142L999.27,48.06" style="fill:none;stroke:#FF0000;stroke-opacity:0.50196;stroke-width:1.25" />
<path d="M1015.2,48.06L1031.1,48.06L1031.1,52.601L1015.2,52.601Z" style="fill:#FF7F7F;fill-opacity:0.50196" />
<path d="M1015.2,48.06L1031.1,48.06L1031.1,52.601L1015.2,52.601L1015.2,48.06" style="fill:none;stroke:#FF0000;stroke-opacity:0.50196;stroke-width:1.25" />
<path d="M1031.1,48.06L1047,48.06L1047,53.509L1031.1,53.509Z" style="fill:#FF7F7F;fill-opacity:0.50196" />
<path d="M1031.1,48.06L1047,48.06L1047,53.509L1031.1,53.509L1031.1,48.06" style="fill:none;stroke:#FF0000;stroke-opacity:0.50196;stroke-width:1.25" />
<path d="M1047,48.06L1062.9,48.06L1062.9,53.509L1047,53.509Z" style="fill:#FF7F7F;fill-opacity:0.50196" />
<path d="M1047,48.06L1062.9,48.06L1062.9,53.509L1047,53.509L1047,48.06" style="fill:none;stroke:#FF0000;stroke-opacity:0.50196;stroke-width:1.25" />
<path d="M1062.9,48.06L1078.8,48.06L1078.8,54.417L1062.9,54.417Z" style="fill:#FF7F7F;fill-opacity:0.50196" />
<path d="M1062.9,48.06L1078.8,48.06L1078.8,54.417L1062.9,54.417L1062.9,48.06" style="fill:none;stroke:#FF0000;stroke-opacity:0.50196;stroke-width:1.25" />
<path d="M60.886,48.06L76.81,48.06L76.81,70.764L60.886,70.764Z" style="fill:#7FFF7F;fill-opacity:0.50196" />
<path d="M60.886,48.06L76.81,48.06L76.81,70.764L60.886,70.764L60.886,48.06" style="fill:none;stroke:#00FF00;stroke-opacity:0.50196;stroke-width:1.25" />
<path d="M76.81,48.06L92.734,48.06L92.734,76.213L76.81,76.213Z" style="fill:#7FFF7F;fill-opacity:0.50196" />
<path d="M76.81,48.06L92.734,48.06L92.734,76.213L76.81,76.213L76.81,48.06" style="fill:none;stroke:#00FF00;stroke-opacity:0.50196;stroke-width:1.25" />
<path d="M92.734,48.06L108.66,48.06L108.66,80.753L92.734,80.753Z" style="fill:#7FFF7F;fill-opacity:0.50196" />
<path d="M92.734,48.06L108.66,48.06L108.66,80.753L92.734,80.753L92.734,48.06" style="fill:none;stroke:#00FF00;stroke-opacity:0.50196;stroke-width:1.25" />
<path d="M108.66,48.06L124.58,48.06L124.58,73.488L108.66,73.488Z" style="fill:#7FFF7F;fill-opacity:0.50196" />
<path d="M108.66,48.06L124.58,48.06L124.58,73.488L108.66,73.488L108.66,48.06" style="fill:none;stroke:#00FF00;stroke-opacity:0.50196;stroke-width:1.25" />
<path d="M124.58,48.06L140.5,48.06L140.5,78.029L124.58,78.029Z" style="fill:#7FFF7F;fill-opacity:0.50196" />
<path d="M124.58,48.06L140.5,48.06L140.5,78.029L124.58,78.029L124.58,48.06" style="fill:none;stroke:#00FF00;stroke-opacity:0.50196;stroke-width:1.25" />
<path d="M140.5,48.06L156.43,48.06L156.43,78.029L140.5,78.029Z" style="fill:#7FFF7F;fill-opacity:0.50196" />
<path d="M140.5,48.06L156.43,48.06L156.43,78.029L140.5,78.029L140.5,48.06" style="fill:none;stroke:#00FF00;stroke-opacity:0.50196;stroke-width:1.25" />
<path d="M156.43,48.06L172.35,48.06L172.35,83.478L156.43,83.478Z" style="fill:#7FFF7F;fill-opacity:0.50196" />
<path d="M156.43,48.06L172.35,48.06L172.35,83.478L156.43,83.478L156.43,48.06" style="fill:none;stroke:#00FF00;stroke-opacity:0.50196;stroke-width:1.25" />
<path d="M172.35,48.06L188.28,48.06L188.28,78.937L172.35,78.937Z" style="fill:#7FFF7F;fill-opacity:0.50196" />
<path d="M172.35,48.06L188.28,48.06L188.28,78.937L172.35,78.937L172.35,48.06" style="fill:none;stroke:#00FF00;stroke-opacity:0.50196;stroke-width:1.25" />
<path d="M188.28,48.06L204.2,48.06L204.2,81.661L188.28,81.661Z" style="fill:#7FFF7F;fill-opacity:0.50196" />
<path d="M188.28,48.06L204.2,48.06L204.2,81.661L188.28,81.661L188.28,48.06" style="fill:none;stroke:#00FF00;stroke-opacity:0.50196;stroke-width:1.25" />
<path d="M204.2,48.06L220.12,48.06L220.12,103.46L204.2,103.46Z" style="fill:#7FFF7F;fill-opacity:0.50196" />
<path d="M204.2,48.06L220.12,48.06L220.12,103.46L204.2,103.46L204.2,48.06" style="fill:none;stroke:#00FF00;stroke-opacity:0.50196;stroke-width:1.25" />
<path d="M220.12,48.06L236.05,48.06L236.05,108.91L220.12,108.91Z" style="fill:#7FFF7F;fill-opacity:0.50196" />
<path d="M220.12,48.06L236.05,48.06L236.05,108.91L220.12,108.91L220.12,48.06" style="fill:none;stroke:#00FF00;stroke-opacity:0.50196;stroke-width:1.25" />
<path d="M236.05,48.06L251.97,48.06L251.97,137.06L236.05,137.06Z" style="fill:#7FFF7F;fill-opacity:0.50196" />
<path d="M236.05,48.06L251.97,48.06L251.97,137.06L236.05,137.06L236.05,48.06" style="fill:none;stroke:#00FF00;stroke-opacity:0.50196;stroke-width:1.25" />
<path d="M251.97,48.06L267.89,48.06L267.89,150.68L251.97,150.68Z" style="fill:#7FFF7F;fill-opacity:0.50196" />
<path d="M251.97,48.06L267.89,48.06L267.89,150.68L251.97,150.68L251.97,48.06" style="fill:none;stroke:#00FF00;stroke-opacity:0.50196;stroke-width:1.25" />
<path d="M267.89,48.06L283.82,48.06L283.82,174.29L267.89,174.29Z" style="fill:#7FFF7F;fill-opacity:0.50196" />
<path d="M267.89,48.06L283.82,48.06L283.82,174.29L267.89,174.29L267.89,48.06" style="fill:none;stroke:#00FF00;stroke-opacity:0.50196;stroke-width:1.25" />
<path d="M283.82,48.06L299.74,48.06L299.74,217.88L283.82,217.88Z" style="fill:#7FFF7F;fill-opacity:0.50196" />
<path d="M283.82,48.06L299.74,48.06L299.74,217.88L283.82,217.88L283.82,48.06" style="fill:none;stroke:#00FF00;stroke-opacity:0.50196;stroke-width:1.25" />
<path d="M299.74,48.06L315.66,48.06L315.66,241.49L299.74,241.49Z" style="fill:#7FFF7F;fill-opacity:0.50196" />
<path d="M299.74,48.06L315.66,48.06L315.66,241.49L299.74,241.49L299.74,48.06" style="fill:none;stroke:#00FF00;stroke-opacity:0.50196;stroke-width:1.25" />
<path d="M315.66,48.06L331.59,48.06L331.59,276.91L315.66,276.91Z" style="fill:#7FFF7F;fill-opacity:0.50196" />
<path d="M315.66,48.06L331.59,48.06L331.59,276.91L315.66,276.91L315.66,48.06" style="fill:none;stroke:#00FF00;stroke-opacity:0.50196;stroke-width:1.25" />
<path d="M331.59,48.06L347.51,48.06L347.51,288.72L331.59,288.72Z" style="fill:#7FFF7F;fill-opacity:0.50196" />
<path d="M331.59,48.06L347.51,48.06L347.51,288.72L331.59,288.72L331.59,48.06" style="fill:none;stroke:#00FF00;stroke-opacity:0.50196;stroke-width:1.25" />
<path d="M347.51,48.06L363.44,48.06L363.44,312.33L347.51,312.33Z" style="fill:#7FFF7F;fill-opacity:0.50196" />
<path d="M347.51,48.06L363.44,48.06L363.44,312.33L347.51,312.33L347.51,48.06" style="fill:none;stroke:#00FF00;stroke-opacity:0.50196;stroke-width:1.25" />
<path d="M363.44,48.06L379.36,48.06L379.36,278.73L363.44,278.73Z" style="fill:#7FFF7F;fill-opacity:0.50196" />
<path d="M363.44,48.06L379.36,48.06L379.36,278.73L363.44,278.73L363.44,48.06" style="fill:none;stroke:#00FF00;stroke-opacity:0.50196;stroke-width:1.25" />
<path d="M379.36,48.06L395.28,48.06L395.28,335.94L379.36,335.94Z" style="fill:#7FFF7F;fill-opacity:0.50196" />
<path d="M379.36,48.06L395.28,48.06L395.28,335.94L379.36,335.94L379.36,48.06" style="fill:none;stroke:#00FF00;stroke-opacity:0.50196;stroke-width:1.25" />
<path d="M395.28,48.06L411.21,48.06L411.21,319.59L395.28,319.59Z" style="fill:#7FFF7F;fill-opacity:0.50196" />
<path d="M395.28,48.06L411.21,48.06L411.21,319.59L395.28,319.59L395.28,48.06" style="fill:none;stroke:#00FF00;stroke-opacity:0.50196;stroke-width:1.25" />
<path d="M411.21,48.06L427.13,48.06L427.13,268.74L411.21,268.74Z" style="fill:#7FFF7F;fill-opacity:0.50196" />
<path d="M411.21,48.06L427.13,48.06L427.13,268.74L411.21,268.74L411.21,48.06" style="fill:none;stroke:#00FF00;stroke-opacity:0.50196;stroke-width:1.25" />
<path d="M427.13,48.06L443.05,48.06L443.05,285.08L427.13,285.08Z" style="fill:#7FFF7F;fill-opacity:0.50196" />
<path d="M427.13,48.06L443.05,48.06L443.05,285.08L427.13,285.08L427.13,48.06" style="fill:none;stroke:#00FF00;stroke-opacity:0.50196;stroke-width:1.25" />
<path d="M443.05,48.06L458.98,48.06L458.98,243.31L443.05,243.31Z" style="fill:#7FFF7F;fill-opacity:0.50196" />
<path d="M443.05,48.06L458.98,48.06L458.98,243.31L443.05,243.31L443.05,48.06" style="fill:none;stroke:#00FF00;stroke-opacity:0.50196;stroke-width:1.25" />
<path d="M458.98,48.06L474.9,48.06L474.9,197.9L458.98,197.9Z" style="fill:#7FFF7F;fill-opacity:0.50196" />
<path d="M458.98,48.06L474.9,48.06L474.9,197.9L458.98,197.9L458.98,48.06" style="fill:none;stroke:#00FF00;stroke-opacity:0.50196;stroke-width:1.25" />
<path d="M474.9,48.06L490.82,48.06L490.82,186.1L474.9,186.1Z" style="fill:#7FFF7F;fill-opacity:0.50196" />
<path d="M474.9,48.06L490.82,48.06L490.82,186.1L474.9,186.1L474.9,48.06" style="fill:none;stroke:#00FF00;stroke-opacity:0.50196;stroke-width:1.25" />
<path d="M490.82,48.06L506.75,48.06L506.75,177.92L490.82,177.92Z" style="fill:#7FFF7F;fill-opacity:0.50196" />
<path d="M490.82,48.06L506.75,48.06L506.75,177.92L490.82,177.92L490.82,48.06" style="fill:none;stroke:#00FF00;stroke-opacity:0.50196;stroke-width:1.25" />
<path d="M506.75,48.06L522.67,48.06L522.67,192.45L506.75,192.45Z" style="fill:#7FFF7F;fill-opacity:0.50196" />
<path d="M506.75,48.06L522.67,48.06L522.67,192.45L506.75,192.45L506.75,48.06" style="fill:none;stroke:#00FF00;stroke-opacity:0.50196;stroke-width:1.25" />
<path d="M522.67,48.06L538.6,48.06L538.6,146.14L522.67,146.14Z" style="fill:#7FFF7F;fill-opacity:0.50196" />
<path d="M522.67,48.06L538.6,48.06L538.6,146.14L522.67,146.14L522.67,48.06" style="fill:none;stroke:#00FF00;stroke-opacity:0.50196;stroke-width:1.25" />
<path d="M538.6,48.06L554.52,48.06L554.52,134.33L538.6,134.33Z" style="fill:#7FFF7F;fill-opacity:0.50196" />
<path d="M538.6,48.06L554.52,48.06L554.52,134.33L538.6,134.33L538.6,48.06" style="fill:none;stroke:#00FF00;stroke-opacity:0.50196;stroke-width:1.25" />
<path d="M554.52,48.06L570.44,48.06L570.44,132.52L554.52,132.52Z" style="fill:#7FFF7F;fill-opacity:0.50196" />
<path d="M554.52,48.06L570.44,48.06L570.44,132.52L554.52,132.52L554.52,48.06" style="fill:none;stroke:#00FF00;stroke-opacity:0.50196;stroke-width:1.25" />
<path d="M570.44,48.06L586.37,48.06L586.37,93.467L570.44,93.467Z" style="fill:#7FFF7F;fill-opacity:0.50196" />
<path d="M570.44,48.06L586.37,48.06L586.37,93.467L570.44,93.467L570.44,48.06" style="fill:none;stroke:#00FF00;stroke-opacity:0.50196;stroke-width:1.25" />
<path d="M586.37,48.06L602.29,48.06L602.29,92.559L586.37,92.559Z" style="fill:#7FFF7F;fill-opacity:0.50196" />
<path d="M586.37,48.06L602.29,48.06L602.29,92.559L586.37,92.559L586.37,48.06" style="fill:none;stroke:#00FF00;stroke-opacity:0.50196;stroke-width:1.25" />
<path d="M602.29,48.06L618.21,48.06L618.21,85.294L602.29,85.294Z" style="fill:#7FFF7F;fill-opacity:0.50196" />
<path d="M602.29,48.06L618.21,48.06L618.21,85.294L602.29,85.294L602.29,48.06" style="fill:none;stroke:#00FF00;stroke-opacity:0.50196;stroke-width:1.25" />
<path d="M618.21,48.06L634.14,48.06L634.14,78.937L618.21,78.937Z" style="fill:#7FFF7F;fill-opacity:0.50196" />
<path d="M618.21,48.06L634.14,48.06L634.14,78.937L618.21,78.937L618.21,48.06" style="fill:none;stroke:#00FF00;stroke-opacity:0.50196;stroke-width:1.25" />
<path d="M634.14,48.06L650.06,48.06L650.06,80.753L634.14,80.753Z" style="fill:#7FFF7F;fill-opacity:0.50196" />
<path d="M634.14,48.06L650.06,48.06L650.06,80.753L634.14,80.753L634.14,48.06" style="fill:none;stroke:#00FF00;stroke-opacity:0.50196;stroke-width:1.25" />
<path d="M650.06,48.06L665.99,48.06L665.99,82.57L650.06,82.57Z" style="fill:#7FFF7F;fill-opacity:0.50196" />
<path d="M650.06,48.06L665.99,48.06L665.99,82.57L650.06,82.57L650.06,48.06" style="fill:none;stroke:#00FF00;stroke-opacity:0.50196;stroke-width:1.25" />
<path d="M665.99,48.06L681.91,48.06L681.91,83.478L665.99,83.478Z" style="fill:#7FFF7F;fill-opacity:0.50196" />
<path d="M665.99,48.06L681.91,48.06L681.91,83.478L665.99,83.478L665.99,48.06" style="fill:none;stroke:#00FF00;stroke-opacity:0.50196;stroke-width:1.25" />
<path d="M681.91,48.06L697.83,48.06L697.83,69.856L681.91,69.856Z" style="fill:#7FFF7F;fill-opacity:0.50196" />
<path d="M681.91,48.06L697.83,48.06L697.83,69.856L681.91,69.856L681.91,48.06" style="fill:none;stroke:#00FF00;stroke-opacity:0.50196;stroke-width:1.25" />
<path d="M697.83,48.06L713.76,48.06L713.76,72.58L697.83,72.58Z" style="fill:#7FFF7F;fill-opacity:0.50196" />
<path d="M697.83,48.06L713.76,48.06L713.76,72.58L697.83,72.58L697.83,48.06" style="fill:none;stroke:#00FF00;stroke-opacity:0.50196;stroke-width:1.25" />
<path d="M713.76,48.06L729.68,48.06L729.68,68.947L713.76,68.947Z" style="fill:#7FFF7F;fill-opacity:0.50196" />
<path d="M713.76,48.06L729.68,48.06L729.68,68.947L713.76,68.947L713.76,48.06" style="fill:none;stroke:#00FF00;stroke-opacity:0.50196;stroke-width:1.25" />
<path d="M729.68,48.06L745.6,48.06L745.6,74.396L729.68,74.396Z" style="fill:#7FFF7F;fill-opacity:0.50196" />
<path d="M729.68,48.06L745.6,48.06L745.6,74.396L729.68,74.396L729.68,48.06" style="fill:none;stroke:#00FF00;stroke-opacity:0.50196;stroke-width:1.25" />
<path d="M745.6,48.06L761.53,48.06L761.53,68.039L745.6,68.039Z" style="fill:#7FFF7F;fill-opacity:0.50196" />
<path d="M745.6,48.06L761.53,48.06L761.53,68.039L745.6,68.039L745.6,48.06" style="fill:none;stroke:#00FF00;stroke-opacity:0.50196;stroke-width:1.25" />
<path d="M761.53,48.06L777.45,48.06L777.45,63.499L761.53,63.499Z" style="fill:#7FFF7F;fill-opacity:0.50196" />
<path d="M761.53,48.06L777.45,48.06L777.45,63.499L761.53,63.499L761.53,48.06" style="fill:none;stroke:#00FF00;stroke-opacity:0.50196;stroke-width:1.25" />
<path d="M777.45,48.06L793.37,48.06L793.37,62.591L777.45,62.591Z" style="fill:#7FFF7F;fill-opacity:0.50196" />
<path d="M777.45,48.06L793.37,48.06L793.37,62.591L777.45,62.591L777.45,48.06" style="fill:none;stroke:#00FF00;stroke-opacity:0.50196;stroke-width:1.25" />
<path d="M793.37,48.06L809.3,48.06L809.3,70.764L793.37,70.764Z" style="fill:#7FFF7F;fill-opacity:0.50196" />
<path d="M793.37,48.06L809.3,48.06L809.3,70.764L793.37,70.764L793.37,48.06" style="fill:none;stroke:#00FF00;stroke-opacity:0.50196;stroke-width:1.25" />
<path d="M809.3,48.06L825.22,48.06L825.22,64.407L809.3,64.407Z" style="fill:#7FFF7F;fill-opacity:0.50196" />
<path d="M809.3,48.06L825.22,48.06L825.22,64.407L809.3,64.407L809.3,48.06" style="fill:none;stroke:#00FF00;stroke-opacity:0.50196;stroke-width:1.25" />
<path d="M825.22,48.06L841.15,48.06L841.15,62.591L825.22,62.591Z" style="fill:#7FFF7F;fill-opacity:0.50196" />
<path d="M825.22,48.06L841.15,48.06L841.15,62.591L825.22,62.591L825.22,48.06" style="fill:none;stroke:#00FF00;stroke-opacity:0.50196;stroke-width:1.25" />
<path d="M841.15,48.06L857.07,48.06L857.07,59.866L841.15,59.866Z" style="fill:#7FFF7F;fill-opacity:0.50196" />
<path d="M841.15,48.06L857.07,48.06L857.07,59.866L841.15,59.866L841.15,48.06" style="fill:none;stroke:#00FF00;stroke-opacity:0.50196;stroke-width:1.25" />
<path d="M857.07,48.06L872.99,48.06L872.99,61.682L857.07,61.682Z" style="fill:#7FFF7F;fill-opacity:0.50196" />
<path d="M857.07,48.06L872.99,48.06L872.99,61.682L857.07,61.682L857.07,48.06" style="fill:none;stroke:#00FF00;stroke-opacity:0.50196;stroke-width:1.25" />
<path d="M872.99,48.06L888.92,48.06L888.92,60.774L872.99,60.774Z" style="fill:#7FFF7F;fill-opacity:0.50196" />
<path d="M872.99,48.06L888.92,48.06L888.92,60.774L872.99,60.774L872.99,48.06" style="fill:none;stroke:#00FF00;stroke-opacity:0.50196;stroke-width:1.25" />
<path d="M888.92,48.06L904.84,48.06L904.84,62.591L888.92,62.591Z" style="fill:#7FFF7F;fill-opacity:0.50196" />
<path d="M888.92,48.06L904.84,48.06L904.84,62.591L888.92,62.591L888.92,48.06" style="fill:none;stroke:#00FF00;stroke-opacity:0.50196;stroke-width:1.25" />
<path d="M904.84,48.06L920.76,48.06L920.76,58.05L904.84,58.05Z" style="fill:#7FFF7F;fill-opacity:0.50196" />
<path d="M904.84,48.06L920.76,48.06L920.76,58.05L904.84,58.05L904.84,48.06" style="fill:none;stroke:#00FF00;stroke-opacity:0.50196;stroke-width:1.25" />
<path d="M920.76,48.06L936.69,48.06L936.69,62.591L920.76,62.591Z" style="fill:#7FFF7F;fill-opacity:0.50196" />
<path d="M920.76,48.06L936.69,48.06L936.69,62.591L920.76,62.591L920.76,48.06" style="fill:none;stroke:#00FF00;stroke-opacity:0.50196;stroke-width:1.25" />
<path d="M936.69,48.06L952.61,48.06L952.61,51.693L936.69,51.693Z" style="fill:#7FFF7F;fill-opacity:0.50196" />
<path d="M936.69,48.06L952.61,48.06L952.61,51.693L936.69,51.693L936.69,48.06" style="fill:none;stroke:#00FF00;stroke-opacity:0.50196;stroke-width:1.25" />
<path d="M952.61,48.06L968.53,48.06L968.53,50.785L952.61,50.785Z" style="fill:#7FFF7F;fill-opacity:0.50196" />
<path d="M952.61,48.06L968.53,48.06L968.53,50.785L952.61,50.785L952.61,48.06" style="fill:none;stroke:#00FF00;stroke-opacity:0.50196;stroke-width:1.25" />
<path d="M968.53,48.06L984.46,48.06L984.46,54.417L968.53,54.417Z" style="fill:#7FFF7F;fill-opacity:0.50196" />
<path d="M968.53,48.06L984.46,48.06L984.46,54.417L968.53,54.417L968.53,48.06" style="fill:none;stroke:#00FF00;stroke-opacity:0.50196;stroke-width:1.25" />
<path d="M984.46,48.06L1000.4,48.06L1000.4,53.509L984.46,53.509Z" style="fill:#7FFF7F;fill-opacity:0.50196" />
<path d="M984.46,48.06L1000.4,48.06L1000.4,53.509L984.46,53.509L984.46,48.06" style="fill:none;stroke:#00FF00;stroke-opacity:0.50196;stroke-width:1.25" />
<path d="M1000.4,48.06L1016.3,48.06L1016.3,58.05L1000.4,58.05Z" style="fill:#7FFF7F;fill-opacity:0.50196" />
<path d="M1000.4,48.06L1016.3,48.06L1016.3,58.05L1000.4,58.05L1000.4,48.06" style="fill:none;stroke:#00FF00;stroke-opacity:0.50196;stroke-width:1.25" />
<path d="M1016.3,48.06L1032.2,48.06L1032.2,49.877L1016.3,49.877Z" style="fill:#7FFF7F;fill-opacity:0.50196" />
<path d="M1016.3,48.06L1032.2,48.06L1032.2,49.877L1016.3,49.877L1016.3,48.06" style="fill:none;stroke:#00FF00;stroke-opacity:0.50196;stroke-width:1.25" />
<path d="M1032.2,48.06L1048.2,48.06L1048.2,56.234L1032.2,56.234Z" style="fill:#7FFF7F;fill-opacity:0.50196" />
<path d="M1032.2,48.06L1048.2,48.06L1048.2,56.234L1032.2,56.234L1032.2,48.06" style="fill:none;stroke:#00FF00;stroke-opacity:0.50196;stroke-width:1.25" />
<path d="M1048.2,48.06L1064.1,48.06L1064.1,57.142L1048.2,57.142Z" style="fill:#7FFF7F;fill-opacity:0.50196" />
<path d="M1048.2,48.06L1064.1,48.06L1064.1,57.142L1048.2,57.142L1048.2,48.06" style="fill:none;stroke:#00FF00;stroke-opacity:0.50196;stroke-width:1.25" />
<path d="M1064.1,48.06L1080,48.06L1080,50.785L1064.1,50.785Z" style="fill:#7FFF7F;fill-opacity:0.50196" />
<path d="M1064.1,48.06L1080,48.06L1080,50.785L1064.1,50.785L1064.1,48.06" style="fill:none;stroke:#00FF00;stroke-opacity:0.50196;stroke-width:1.25" />
<path d="M1035,321.24L1080,321.24L1080,335.94L1035,335.94Z" style="fill:#FF7F7F;fill-opacity:0.50196" />
<path d="M1035,321.24L1080,321.24L1080,335.94L1035,335.94L1035,321.24" style="fill:none;stroke:#FF0000;stroke-opacity:0.50196;stroke-width:1.25" />
<text x="690.68" y="-321.54" transform="scale(1, -1)"
	style="font-family:Helvetica;font-weight:normal;font-style:normal;font-size:12pt">interact-recal.pep.xml(mean: -1.06 stddev: 3.51)     </text>
<path d="M1035,306.54L1080,306.54L1080,321.24L1035,321.24Z" style="fill:#7FFF7F;fill-opacity:0.50196" />
<path d="M1035,306.54L1080,306.54L1080,321.24L1035,321.24L1035,306.54" style="fill:none;stroke:#00FF00;stroke-opacity:0.50196;stroke-width:1.25" />
<text x="728.19" y="-306.84" transform="scale(1, -1)"
	style="font-family:Helvetica;font-weight:normal;font-style:normal;font-size:12pt">interact.pep.xml(mean: -2.98 stddev: 3.17)     </text>
</g>
</svg>
